<?xml version="1.0" encoding="iso-8859-1"?>
<!-- Uploaded to: SVG Repo, www.svgrepo.com, Generator: SVG Repo Mixer Tools -->
<!DOCTYPE svg PUBLIC "-//W3C//DTD SVG 1.1//EN" "http://www.w3.org/Graphics/SVG/1.1/DTD/svg11.dtd">
<svg fill="#000000" height="800px" width="800px" version="1.1" id="Capa_1" xmlns="http://www.w3.org/2000/svg" xmlns:xlink="http://www.w3.org/1999/xlink" 
	 viewBox="0 0 493.594 493.594" xml:space="preserve">
<g>
	<path d="M427.687,122.269l-78.575-0.001c33.118-0.696,59.851-27.834,59.851-61.118c0-33.718-27.432-61.15-61.149-61.15
		c-33.719,0-61.151,27.432-61.151,61.15c0,33.283,26.733,60.421,59.852,61.118l-78.575,0c-14.502,0-26.3,11.798-26.3,26.299v126.293
		c0,14.501,11.798,26.299,26.301,26.3h1.174v157.523c0,19.25,15.661,34.912,34.912,34.912h7.669
		c18.018,0,32.333-13.686,34.81-33.281c0.354-2.803,0.794-6.174,1.297-9.966c0.516,3.846,0.966,7.24,1.325,10.008
		c2.538,19.571,16.85,33.239,34.804,33.239h7.67c19.251,0,34.912-15.661,34.912-34.912V301.16h1.179
		c14.5,0,26.297-11.797,26.297-26.298V148.564C453.981,134.066,442.183,122.27,427.687,122.269z M312.661,61.15
		c0-19.382,15.769-35.15,35.151-35.15c19.382,0,35.149,15.768,35.149,35.15c0,19.382-15.768,35.151-35.149,35.151
		C328.43,96.301,312.661,80.532,312.661,61.15z M427.987,274.862c0,0.164-0.133,0.298-0.3,0.298h-14.176c-7.18,0-13,5.82-13,13
		v170.523c0,4.913-3.998,8.912-8.912,8.912h-7.67c-6.037,0-8.51-6.653-9.021-10.583c-3.287-25.352-14.114-102.507-14.223-103.284
		c-0.9-6.415-6.388-11.189-12.866-11.193c-0.003,0-0.005,0-0.008,0c-6.475,0-11.963,4.766-12.871,11.177
		c-0.109,0.767-10.898,76.97-14.232,103.341c-0.495,3.915-2.95,10.542-9.015,10.542h-7.669c-4.914,0-8.912-3.998-8.912-8.912V288.16
		c0-7.18-5.82-13-13-13H267.94c-0.166,0-0.302-0.135-0.302-0.3V148.566c0-0.165,0.135-0.299,0.3-0.299l55.778,0.001l10.318,12.929
		l-12.903,76.719c-0.647,3.843,0.466,7.773,3.029,10.708l13.86,15.867c2.469,2.826,6.038,4.448,9.791,4.448
		c3.752,0,7.321-1.622,9.79-4.447l13.86-15.866c2.565-2.935,3.677-6.866,3.03-10.709l-12.903-76.721l10.319-12.928l55.777,0.001
		c0.166,0,0.301,0.137,0.301,0.301V274.862z"/>
	<path d="M189.531,232.669h-1.023c1.067-2.794,1.657-5.822,1.657-8.986V98.376c0-13.929-11.332-25.262-25.262-25.262h-87.67
		c-13.93,0-25.262,11.332-25.262,25.262v125.306c0,3.165,0.59,6.193,1.658,8.987h-1.023c-7.18,0-13,5.82-13,13v233.164
		c0,7.18,5.82,13,13,13h136.923c7.18,0,13-5.82,13-13V245.669C202.531,238.489,196.71,232.669,189.531,232.669z M77.972,99.114
		h86.193v123.829H77.972V99.114z M110.064,325.463v-10.561h22.012v10.561c0,2.637-2.145,4.782-4.782,4.782h-12.448
		C112.208,330.245,110.064,328.1,110.064,325.463z M145.075,288.902H97.064c-7.18,0-13,5.82-13,13v23.561
		c0,8.225,3.249,15.701,8.522,21.229H65.608v-88.023h42.462v11.67c0,7.18,5.82,13,13,13c7.18,0,13-5.82,13-13v-11.67h42.461v88.023
		h-26.979c5.274-5.528,8.523-13.004,8.523-21.229v-23.561C158.075,294.722,152.255,288.902,145.075,288.902z M65.608,465.833
		v-93.141l110.923,0v93.141H65.608z"/>
</g>
</svg>