<?xml version="1.0" encoding="iso-8859-1"?>
<!-- Uploaded to: SVG Repo, www.svgrepo.com, Generator: SVG Repo Mixer Tools -->
<!DOCTYPE svg PUBLIC "-//W3C//DTD SVG 1.1//EN" "http://www.w3.org/Graphics/SVG/1.1/DTD/svg11.dtd">
<svg fill="#000000" height="800px" width="800px" version="1.1" id="Capa_1" xmlns="http://www.w3.org/2000/svg" xmlns:xlink="http://www.w3.org/1999/xlink" 
	 viewBox="0 0 404.405 404.405" xml:space="preserve">
<g>
	<path d="M254.12,157.15v-24.233c3.492-3.495,5.654-8.319,5.654-13.638c0-6.972-3.729-13.075-9.283-16.468
		c1.023-14.308,12.117-15.888,13.853-16.044h19.445c2.762,0,5-2.239,5-5V49.63c0-1.59-0.758-3.086-2.039-4.028l-60.695-44.63
		C225.198,0.34,224.159,0,223.094,0H119.548c-2.762,0-5,2.239-5,5v12.747H85.686c-2.761,0-5,2.239-5,5v34.789c0,2.761,2.239,5,5,5
		h28.862v14.766c0,2.761,2.238,5,5,5h19.66c-3.021,21.238-27.008,33.997-27.262,34.129c-2.349,1.213-3.347,4.045-2.278,6.463
		c5.797,13.119,11.448,15.329,13.62,15.59c0.568,0.068,1.433,0.016,1.78-0.061c29.979-6.474,43.104-29.25,48.241-42.133l5.242,7.386
		c-4.826,3.513-7.981,9.19-7.981,15.602c0,5.319,2.163,10.143,5.654,13.639v24.233c-59.148,70.939-69.603,118.995-69.603,193.26
		c0,23.828,13.575,42.355,39.258,53.576c0.632,0.276,1.313,0.419,2.002,0.419h134.58c0.689,0,1.371-0.143,2.002-0.419
		c25.682-11.221,39.256-29.748,39.256-53.576C323.719,276.145,313.264,228.089,254.12,157.15z M114.548,52.536H90.686V27.747h23.862
		V52.536z M124.735,128.237c-0.804-0.703-2.22-2.244-3.97-5.416c8.377-5.378,26.326-19.261,28.546-40.519h14.071l2.783,3.921
		C164.572,92.049,155.269,120.646,124.735,128.237z M170.042,74.408c-0.938-1.321-2.457-2.106-4.077-2.106h-41.417V10h96.906
		l57.336,42.16v24.606c0,0-14.83,0.003-14.926,0.008c-7.44,0.435-20.953,5.935-23.152,23.199h-52.525L170.042,74.408z
		 M249.774,119.279c0,5.132-4.176,9.307-9.307,9.307h-50.592c-5.13,0-9.305-4.175-9.305-9.307c0-5.131,4.175-9.306,9.305-9.306
		h50.592C245.598,109.973,249.774,114.147,249.774,119.279z M185.055,162.18c0.756-0.9,1.17-2.039,1.17-3.215v-20.736
		c1.184,0.227,2.401,0.357,3.65,0.357h50.592c1.25,0,2.469-0.129,3.652-0.357v20.736c0,1.176,0.414,2.314,1.17,3.215
		c10.588,12.617,19.582,24.478,27.221,35.881H157.832C165.473,186.658,174.466,174.796,185.055,162.18z M281.403,394.405H148.941
		c-21.446-9.655-32.318-24.452-32.318-43.995c0-55.246,5.983-95.492,34.781-142.35H278.94
		c28.797,46.857,34.779,87.104,34.779,142.35C313.719,369.953,302.848,384.75,281.403,394.405z"/>
	<g>
		<path d="M135.773,338.834c-0.025,0-0.051,0-0.076,0c-2.762-0.041-4.966-2.313-4.925-5.074
			c0.96-64.232,20.179-100.264,26.046-109.777c1.449-2.35,4.529-3.08,6.881-1.631c2.35,1.449,3.08,4.53,1.631,6.881
			c-5.528,8.963-23.637,43.001-24.559,104.677C140.73,336.645,138.499,338.834,135.773,338.834z"/>
	</g>
</g>
</svg>